<svg width="55" height="13" viewBox="0 0 55 13" fill="none" xmlns="http://www.w3.org/2000/svg">
<path d="M4.9745 12.192C4.15317 12.192 3.42783 12.0533 2.7985 11.776C2.16917 11.488 1.67317 11.0827 1.3105 10.56C0.947833 10.0267 0.761167 9.38133 0.7505 8.624H2.9105C2.93183 9.14667 3.1185 9.58933 3.4705 9.952C3.83317 10.304 4.32917 10.48 4.9585 10.48C5.5025 10.48 5.9345 10.352 6.2545 10.096C6.5745 9.82933 6.7345 9.47733 6.7345 9.04C6.7345 8.58133 6.5905 8.224 6.3025 7.968C6.02517 7.712 5.65183 7.504 5.1825 7.344C4.71317 7.184 4.21183 7.01333 3.6785 6.832C2.8145 6.53333 2.15317 6.14933 1.6945 5.68C1.2465 5.21067 1.0225 4.58667 1.0225 3.808C1.01183 3.14667 1.1665 2.58133 1.4865 2.112C1.81717 1.632 2.26517 1.264 2.8305 1.008C3.39583 0.741333 4.0465 0.608 4.7825 0.608C5.52917 0.608 6.18517 0.741333 6.7505 1.008C7.3265 1.27467 7.7745 1.648 8.0945 2.128C8.42517 2.608 8.60117 3.17867 8.6225 3.84H6.4305C6.41983 3.44533 6.26517 3.09867 5.9665 2.8C5.6785 2.49067 5.27317 2.336 4.7505 2.336C4.3025 2.32533 3.92383 2.43733 3.6145 2.672C3.31583 2.896 3.1665 3.22667 3.1665 3.664C3.1665 4.03733 3.28383 4.336 3.5185 4.56C3.75317 4.77333 4.07317 4.95467 4.4785 5.104C4.88383 5.25333 5.34783 5.41333 5.8705 5.584C6.42517 5.776 6.93183 6 7.3905 6.256C7.84917 6.512 8.21717 6.85333 8.4945 7.28C8.77183 7.696 8.9105 8.23467 8.9105 8.896C8.9105 9.48267 8.76117 10.0267 8.4625 10.528C8.16383 11.0293 7.72117 11.4347 7.1345 11.744C6.54783 12.0427 5.82783 12.192 4.9745 12.192ZM14.7054 12.192C13.9054 12.192 13.196 12.0213 12.5774 11.68C11.9587 11.3387 11.4734 10.8587 11.1214 10.24C10.7694 9.62133 10.5934 8.90667 10.5934 8.096C10.5934 7.27467 10.764 6.544 11.1054 5.904C11.4574 5.264 11.9374 4.768 12.5454 4.416C13.164 4.05333 13.8894 3.872 14.7214 3.872C15.5 3.872 16.188 4.04267 16.7854 4.384C17.3827 4.72533 17.8467 5.19467 18.1774 5.792C18.5187 6.37867 18.6894 7.03467 18.6894 7.76C18.6894 7.87733 18.684 8 18.6734 8.128C18.6734 8.256 18.668 8.38933 18.6574 8.528H12.6254C12.668 9.14667 12.8814 9.632 13.2654 9.984C13.66 10.336 14.1347 10.512 14.6894 10.512C15.1054 10.512 15.452 10.4213 15.7294 10.24C16.0174 10.048 16.2307 9.80267 16.3694 9.504H18.4494C18.3 10.0053 18.0494 10.464 17.6974 10.88C17.356 11.2853 16.9294 11.6053 16.4174 11.84C15.916 12.0747 15.3454 12.192 14.7054 12.192ZM14.7214 5.536C14.22 5.536 13.7774 5.68 13.3934 5.968C13.0094 6.24533 12.764 6.672 12.6574 7.248H16.6094C16.5774 6.72533 16.3854 6.30933 16.0334 6C15.6814 5.69067 15.244 5.536 14.7214 5.536ZM23.3479 12.192C22.6652 12.192 22.1052 12.0853 21.6679 11.872C21.2305 11.648 20.9052 11.3547 20.6919 10.992C20.4785 10.6293 20.3719 10.2293 20.3719 9.792C20.3719 9.056 20.6599 8.45867 21.2359 8C21.8119 7.54133 22.6759 7.312 23.8279 7.312H25.8439V7.12C25.8439 6.576 25.6892 6.176 25.3799 5.92C25.0705 5.664 24.6865 5.536 24.2279 5.536C23.8119 5.536 23.4492 5.63733 23.1399 5.84C22.8305 6.032 22.6385 6.32 22.5639 6.704H20.5639C20.6172 6.128 20.8092 5.62667 21.1399 5.2C21.4812 4.77333 21.9185 4.448 22.4519 4.224C22.9852 3.98933 23.5825 3.872 24.2439 3.872C25.3745 3.872 26.2652 4.15467 26.9159 4.72C27.5665 5.28533 27.8919 6.08533 27.8919 7.12V12H26.1479L25.9559 10.72C25.7212 11.1467 25.3905 11.4987 24.9639 11.776C24.5479 12.0533 24.0092 12.192 23.3479 12.192ZM23.8119 10.592C24.3985 10.592 24.8519 10.4 25.1719 10.016C25.5025 9.632 25.7105 9.15733 25.7959 8.592H24.0519C23.5079 8.592 23.1185 8.69333 22.8839 8.896C22.6492 9.088 22.5319 9.328 22.5319 9.616C22.5319 9.92533 22.6492 10.1653 22.8839 10.336C23.1185 10.5067 23.4279 10.592 23.8119 10.592ZM30.0463 12V4.064H31.8703L32.0623 5.552C32.3503 5.04 32.7396 4.63467 33.2303 4.336C33.7316 4.02667 34.3183 3.872 34.9903 3.872V6.032H34.4143C33.9663 6.032 33.5663 6.10133 33.2143 6.24C32.8623 6.37867 32.5849 6.61867 32.3823 6.96C32.1903 7.30133 32.0943 7.776 32.0943 8.384V12H30.0463ZM40.3374 12.192C39.5267 12.192 38.812 12.016 38.1934 11.664C37.5747 11.312 37.084 10.8213 36.7214 10.192C36.3694 9.56267 36.1934 8.84267 36.1934 8.032C36.1934 7.22133 36.3694 6.50133 36.7214 5.872C37.084 5.24267 37.5747 4.752 38.1934 4.4C38.812 4.048 39.5267 3.872 40.3374 3.872C41.3507 3.872 42.204 4.13867 42.8974 4.672C43.5907 5.19467 44.0334 5.92 44.2254 6.848H42.0654C41.9587 6.464 41.7454 6.16533 41.4254 5.952C41.116 5.728 40.748 5.616 40.3214 5.616C39.756 5.616 39.276 5.82933 38.8814 6.256C38.4867 6.68267 38.2894 7.27467 38.2894 8.032C38.2894 8.78933 38.4867 9.38133 38.8814 9.808C39.276 10.2347 39.756 10.448 40.3214 10.448C40.748 10.448 41.116 10.3413 41.4254 10.128C41.7454 9.91467 41.9587 9.61067 42.0654 9.216H44.2254C44.0334 10.112 43.5907 10.832 42.8974 11.376C42.204 11.92 41.3507 12.192 40.3374 12.192ZM46.2431 12V0.48H48.2911V5.28C48.5578 4.84267 48.9151 4.50133 49.3631 4.256C49.8218 4 50.3445 3.872 50.9311 3.872C51.9125 3.872 52.6698 4.18133 53.2031 4.8C53.7471 5.41867 54.0191 6.32533 54.0191 7.52V12H51.9871V7.712C51.9871 7.02933 51.8485 6.50667 51.5711 6.144C51.3045 5.78133 50.8778 5.6 50.2911 5.6C49.7151 5.6 49.2351 5.80267 48.8511 6.208C48.4778 6.61333 48.2911 7.17867 48.2911 7.904V12H46.2431Z" fill="black"/>
</svg>
